<svg xmlns="http://www.w3.org/2000/svg" viewBox="0 0 98.1 118">
  <path d="M91.8 15.6C80.9-.1 59.2-4.7 43.6 5.2L16.1 22.8C8.6 27.4 3.4 34.9 1.9 43.4c-1.3 6.9-.4 14.1 2.6 20.4-2 2.9-3.4 6.2-4.1 9.6-1.5 8 .5 16.1 5.4 22.5 10.9 15.7 32.6 20.3 48.2 10.4l27.5-17.6c7.5-4.6 12.7-12.1 14.2-20.6 1.3-6.9.4-14.1-2.6-20.4 2-2.9 3.4-6.2 4.1-9.6 1.5-8-.5-16.1-5.4-22.5z" fill="#FF3E00"/>
  <path d="M40.9 103.9c-8.9 2.3-18.2-1.2-23.4-8.7-3.2-4.4-4.4-9.9-3.5-15.3.2-.9.4-1.7.6-2.5l.5-1.6 1.4 1c3.3 2.4 6.9 4.2 10.8 5.4l1 .3-.1 1c-.1 1.4.3 2.9 1.1 4 1.7 2.4 4.7 3.4 7.4 2.7.6-.2 1.2-.4 1.7-.7L65.5 72c1.4-.9 2.3-2.2 2.6-3.8.3-1.6-.1-3.3-1-4.6-1.7-2.4-4.7-3.4-7.4-2.7-.6.2-1.2.4-1.7.7l-10.5 6.7c-1.7 1.1-3.6 1.9-5.6 2.4-8.9 2.3-18.2-1.2-23.4-8.7-3.2-4.4-4.4-9.9-3.5-15.3.8-5.3 3.9-10.1 8.5-13l27.5-17.6c1.7-1.1 3.6-1.9 5.6-2.4 8.9-2.3 18.2 1.2 23.4 8.7 3.2 4.4 4.4 9.9 3.5 15.3-.2.9-.4 1.7-.6 2.5l-.5 1.6-1.4-1c-3.3-2.4-6.9-4.2-10.8-5.4l-1-.3.1-1c.1-1.4-.3-2.9-1.1-4-1.7-2.4-4.7-3.4-7.4-2.7-.6.2-1.2.4-1.7.7L32.4 46.1c-1.4.9-2.3 2.2-2.6 3.8-.3 1.6.1 3.3 1 4.6 1.7 2.4 4.7 3.4 7.4 2.7.6-.2 1.2-.4 1.7-.7l10.5-6.7c1.7-1.1 3.6-1.9 5.6-2.4 8.9-2.3 18.2 1.2 23.4 8.7 3.2 4.4 4.4 9.9 3.5 15.3-.8 5.3-3.9 10.1-8.5 13L47.1 101c-1.7 1.1-3.6 1.9-5.6 2.4-.2.2-.4.3-.6.5z" fill="#FFF"/>
</svg>
