<svg width="100" height="100" viewBox="0 0 100 100" fill="none" xmlns="http://www.w3.org/2000/svg">
<rect x="14" y="14" width="73" height="73" rx="4" fill="#D9D9D9" stroke="#2E4259" stroke-width="2"/>
<rect x="13" y="13" width="73" height="73" rx="4" stroke="black" stroke-width="2"/>
<path d="M44.8359 66H38.4375V40.8984H39.9844L42.0938 43.3359C43.125 42.3984 44.2891 41.6797 45.5859 41.1797C46.8984 40.6641 48.2656 40.4062 49.6875 40.4062C51.2188 40.4062 52.6641 40.7031 54.0234 41.2969C55.3828 41.875 56.5703 42.6797 57.5859 43.7109C58.6016 44.7266 59.3984 45.9219 59.9766 47.2969C60.5703 48.6562 60.8672 50.1094 60.8672 51.6562V66H54.4688V51.6562C54.4688 51 54.3438 50.3828 54.0938 49.8047C53.8438 49.2109 53.5 48.6953 53.0625 48.2578C52.625 47.8203 52.1172 47.4766 51.5391 47.2266C50.9609 46.9766 50.3438 46.8516 49.6875 46.8516C49.0156 46.8516 48.3828 46.9766 47.7891 47.2266C47.1953 47.4766 46.6797 47.8203 46.2422 48.2578C45.8047 48.6953 45.4609 49.2109 45.2109 49.8047C44.9609 50.3828 44.8359 51 44.8359 51.6562V66Z" fill="black"/>
</svg>
