<svg width="100" height="100" viewBox="0 0 100 100" fill="none" xmlns="http://www.w3.org/2000/svg">
<rect x="14" y="14" width="73" height="73" rx="4" fill="#D9D9D9" stroke="#2E4259" stroke-width="2"/>
<rect x="13" y="13" width="73" height="73" rx="4" stroke="black" stroke-width="2"/>
<path d="M53.0908 35.4443L67.8356 25.12L68.0908 25.1199L71.8506 30.854L57.1059 41.1784L53.0908 35.4443Z" fill="#2E4259"/>
<rect x="68.0908" y="25" width="6" height="48" fill="#2E4259"/>
<path d="M24.3257 73.0431L24.1339 48.8563L24.2571 48.5742L30.1337 48.8087L30.3255 72.9955L24.3257 73.0431Z" fill="#2E4259"/>
<path d="M24.1318 48.5753L27.0905 43.3555L72.1592 68.9016L68.0903 73L67.0903 73L65.0908 72L24.1318 48.5753Z" fill="#2E4259"/>
<path d="M52.0908 33.4443L66.8356 23.12L67.0908 23.1199L70.8506 28.854L56.1059 39.1784L52.0908 33.4443Z" fill="black"/>
<rect x="67.0908" y="23" width="6" height="48" fill="black"/>
<path d="M23.3257 71.0431L23.1339 46.8563L23.2571 46.5742L29.1337 46.8087L29.3255 70.9955L23.3257 71.0431Z" fill="black"/>
<path d="M23.1318 46.5753L26.0905 41.3555L71.1592 66.9016L67.0903 71L66.0903 71L64.0908 70L23.1318 46.5753Z" fill="black"/>
</svg>
